PathFileType	4	(X/Y/Z)	/Users/itak/Documents/Research/Walk-IL/dataset/trc/00218_00009.trc
DataRate	CameraRate	NumFrames	NumMarkers	Units	OrigDataRate	OrigDataStartFrame	OrigNumFrames
100.000000	100.000000	4	53	mm	100.000000	127	510
Frame#	Time	RPSI			LPSI			L3			STRN			T10			C7			CLAV			RBAK			LBAK			LSHO			LUPA			LAEL			LAOL			LWTS			LWPS			LFRA			LIFD			LHPS			LHTS			RSHO			RUPA			RAEL			RAOL			RWTS			RWPS			RFRA			RIFD			RHTS			RHPS			RBHD			LFHD			RFHD			LBHD			LHIP			RHIP			RASI			LASI			LKNE			LTHI			LANK			LTIP			LTOE			LMT1			LMT5			LHEE			RKNE			RANK			RTIP			RTOE			RMT1			RMT5			RHEE			RTHI			
		X1	Y1	Z1	X2	Y2	Z2	X3	Y3	Z3	X4	Y4	Z4	X5	Y5	Z5	X6	Y6	Z6	X7	Y7	Z7	X8	Y8	Z8	X9	Y9	Z9	X10	Y10	Z10	X11	Y11	Z11	X12	Y12	Z12	X13	Y13	Z13	X14	Y14	Z14	X15	Y15	Z15	X16	Y16	Z16	X17	Y17	Z17	X18	Y18	Z18	X19	Y19	Z19	X20	Y20	Z20	X21	Y21	Z21	X22	Y22	Z22	X23	Y23	Z23	X24	Y24	Z24	X25	Y25	Z25	X26	Y26	Z26	X27	Y27	Z27	X28	Y28	Z28	X29	Y29	Z29	X30	Y30	Z30	X31	Y31	Z31	X32	Y32	Z32	X33	Y33	Z33	X34	Y34	Z34	X35	Y35	Z35	X36	Y36	Z36	X37	Y37	Z37	X38	Y38	Z38	X39	Y39	Z39	X40	Y40	Z40	X41	Y41	Z41	X42	Y42	Z42	X43	Y43	Z43	X44	Y44	Z44	X45	Y45	Z45	X46	Y46	Z46	X47	Y47	Z47	X48	Y48	Z48	X49	Y49	Z49	X50	Y50	Z50	X51	Y51	Z51	X52	Y52	Z52	X53	Y53	Z53	

128	1.27	-1086.635131835938	1056.496948242188	-276.3128662109375	-1084.168579101562	1063.119018554688	-155.5870208740234	-1084.376586914062	1147.449096679688	-206.4638061523438	-1340.173950195312	1311.440185546875	-196.3271942138672	-1082.727294921875	1273.568481445312	-218.7958068847656	-1166.631591796875	1529.162719726562	-219.2676849365234	-1323.477661132812	1430.991333007812	-202.4427337646484	-1083.666259765625	1396.63330078125	-297.1892700195312	-1136.072387695312	1495.8291015625	-107.1002883911133	-1221.897216796875	1491.061279296875	-45.19709777832031	-1186.514526367188	1377.129028320312	37.33319091796875	-1197.8330078125	1165.796630859375	70.68110656738281	-1124.54248046875	1148.786743164062	24.21845436096191	-1299.792358398438	938.5625	10.7856330871582	-1274.662841796875	917.9898681640625	89.56239318847656	-1225.206420898438	1059.971557617188	83.77179718017578	-1318.679565429688	744.3738403320312	15.21922016143799	-1296.921997070312	831.3765869140625	83.45543670654297	-1340.792114257812	839.2882080078125	31.59184265136719	-1236.896118164062	1476.6572265625	-379.6278991699219	-1220.441772460938	1411.970581054688	-447.0093994140625	-1197.908081054688	1131.24462890625	-485.6326599121094	-1145.595703125	1126.485229492188	-405.9845581054688	-1317.353637695312	915.2556762695312	-414.2244873046875	-1277.931396484375	900.8983154296875	-487.1403503417969	-1224.253784179688	1061.875732421875	-491.5331726074219	-1322.932250976562	721.9299926757812	-402.6854858398438	-1354.262329101562	792.4918823242188	-419.5884704589844	-1312.589111328125	792.8703002929688	-478.9615478515625	-1217.836547851562	1670.861694335938	-279.2289123535156	-1402.24951171875	1722.392211914062	-154.8068084716797	-1417.995483398438	1715.174560546875	-253.4261016845703	-1241.031616210938	1686.5986328125	-141.7412719726562	-1178.234619140625	1000.626892089844	-12.17515754699707	-1185.908081054688	1011.488830566406	-378.3997497558594	-1283.18017578125	1048.199829101562	-340.7938537597656	-1281.89794921875	1038.030883789062	-59.27081680297852	-1308.613403320312	522.8230590820312	-45.48630523681641	-1272.382446289062	662.3617553710938	-15.60247611999512	-1178.744750976562	52.00776672363281	-51.40659713745117	-1239.419921875	301.0114440917969	-37.45165252685547	-1392.330688476562	51.18939208984375	-102.4964141845703	-1324.279418945312	47.62433624267578	-145.4259185791016	-1305.64599609375	41.67571640014648	-32.94866180419922	-1118.307495117188	66.03554534912109	-102.4935760498047	-1230.970092773438	516.7261352539062	-325.5396118164062	-1173.718017578125	37.98171615600586	-277.736083984375	-1240.220458984375	401.6923217773438	-303.699462890625	-1389.135131835938	46.46963882446289	-248.6902923583984	-1335.639892578125	46.27547073364258	-202.9264068603516	-1280.827758789062	37.76000213623047	-312.0495910644531	-1115.237426757812	40.98624038696289	-213.6147308349609	nan	nan	nan	
129	1.28	-1084.26806640625	1056.69580078125	-277.1990356445312	-1081.61669921875	1063.33837890625	-156.4451751708984	-1082.107055664062	1147.937866210938	-207.5366516113281	-1338.586303710938	1310.964477539062	-196.7032775878906	-1081.068969726562	1274.035522460938	-220.1784820556641	-1165.942260742188	1529.289672851562	-220.7418060302734	-1322.36181640625	1430.559204101562	-203.080810546875	-1082.801879882812	1397.011474609375	-298.84619140625	-1134.805297851562	1496.278564453125	-108.6183776855469	-1220.369506835938	1491.27197265625	-46.34402465820312	-1184.162841796875	1377.622314453125	36.18228912353516	-1194.041259765625	1166.375854492188	69.78673553466797	-1121.097534179688	1149.46435546875	23.1055965423584	-1296.601440429688	939.3076782226562	10.02309513092041	-1271.099487304688	918.4811401367188	88.63832855224609	-1221.585205078125	1060.476440429688	83.0125732421875	-1315.96728515625	745.1701049804688	14.07570362091064	-1293.624877929688	831.9511108398438	82.419189453125	-1337.721557617188	840.0995483398438	30.8030891418457	-1236.762939453125	1476.20849609375	-380.5880432128906	-1220.57421875	1411.560424804688	-448.0187072753906	-1197.663696289062	1130.933471679688	-486.7935180664062	-1144.731323242188	1126.230834960938	-407.4718627929688	-1315.523315429688	914.1473388671875	-415.2489624023438	-1276.4326171875	900.2727661132812	-488.4513854980469	-1223.668823242188	1061.517578125	-492.6610107421875	-1319.867309570312	720.75341796875	-404.3493041992188	-1351.705322265625	791.168701171875	-420.7566528320312	-1310.439453125	792.0072021484375	-480.4233703613281	-1217.301147460938	1670.409912109375	-280.683349609375	-1401.423095703125	1722.19970703125	-155.9415740966797	-1417.39208984375	1714.84228515625	-254.5166168212891	-1240.194946289062	1686.414672851562	-143.1949768066406	-1175.149291992188	1000.865356445312	-12.81215763092041	-1183.599243164062	1011.386779785156	-379.0772705078125	-1280.855834960938	1047.843017578125	-341.2144165039062	-1279.055541992188	1038.0380859375	-59.75699234008789	-1307.586669921875	523.4855346679688	-45.00248336791992	-1270.614501953125	662.9346923828125	-15.25545883178711	-1178.344116210938	51.98569869995117	-51.42980194091797	-1238.239624023438	301.6409606933594	-37.21242904663086	-1391.614135742188	53.58209228515625	-101.8567047119141	-1323.823852539062	49.23904418945312	-145.1135864257812	-1305.192626953125	42.39653015136719	-32.95979309082031	-1117.737915039062	65.96277618408203	-102.6086044311523	-1228.898315429688	516.7119750976562	-325.8976440429688	-1173.694213867188	37.92926406860352	-277.7623291015625	-1238.534301757812	401.8107299804688	-304.0458984375	-1389.128662109375	46.4608268737793	-248.7147674560547	-1335.649169921875	46.31931304931641	-202.9870910644531	-1280.829833984375	37.71360778808594	-312.133056640625	-1115.249145507812	40.96683883666992	-213.6603088378906	nan	nan	nan	
130	1.29	-1081.92822265625	1056.839599609375	-278.0155029296875	-1079.000610351562	1063.540771484375	-157.2195892333984	-1079.818115234375	1148.422485351562	-208.5306243896484	-1336.943115234375	1310.528198242188	-197.0566253662109	-1079.344970703125	1274.491577148438	-221.4589538574219	-1165.146728515625	1529.41650390625	-222.1224060058594	-1321.16259765625	1430.162231445312	-203.6786346435547	-1081.82080078125	1397.37744140625	-300.3951416015625	-1133.4501953125	1496.706298828125	-110.0514678955078	-1218.784301757812	1491.483276367188	-47.42313385009766	-1181.764282226562	1378.10302734375	35.08670043945312	-1190.216552734375	1166.934692382812	68.92904663085938	-1117.60302734375	1150.142700195312	22.03855133056641	-1293.28662109375	940.0057983398438	9.290063858032227	-1267.4169921875	918.9303588867188	87.74858856201172	-1217.884887695312	1060.955322265625	82.27170562744141	-1313.061889648438	745.9169921875	12.96172142028809	-1290.192138671875	832.4530029296875	81.40554809570312	-1334.4970703125	840.8577270507812	30.03507804870605	-1236.475952148438	1475.777709960938	-381.4790954589844	-1220.569091796875	1411.166137695312	-448.9644165039062	-1197.321044921875	1130.639404296875	-487.8792724609375	-1143.802368164062	1125.961059570312	-408.8649597167969	-1313.696166992188	913.0972290039062	-416.2904663085938	-1274.917358398438	899.700927734375	-489.7597351074219	-1222.989379882812	1061.18701171875	-493.72705078125	-1316.8828125	719.6461181640625	-406.0726928710938	-1349.180419921875	789.913818359375	-421.9779663085938	-1308.31787109375	791.2110595703125	-481.9247436523438	-1216.620971679688	1669.973510742188	-282.0496215820312	-1400.481201171875	1722.037109375	-157.0366821289062	-1416.6533203125	1714.55322265625	-255.5808258056641	-1239.263061523438	1686.242919921875	-144.5698547363281	-1172.2001953125	1001.096862792969	-13.39169692993164	-1181.28759765625	1011.267517089844	-379.7236938476562	-1278.54443359375	1047.543212890625	-341.651123046875	-1276.296875	1038.089233398438	-60.25416946411133	-1306.266479492188	524.0536499023438	-44.54119873046875	-1268.694702148438	663.4593505859375	-14.89531230926514	-1177.547119140625	51.92741012573242	-51.46410751342773	-1236.657104492188	302.2182922363281	-36.98887252807617	-1390.520629882812	56.23356628417969	-101.2490997314453	-1323.002563476562	51.03345489501953	-144.8330078125	-1304.337890625	43.24381637573242	-32.90385437011719	-1116.76025390625	65.78778839111328	-102.7327117919922	-1226.812866210938	516.696533203125	-326.2038879394531	-1173.669799804688	37.88850021362305	-277.7799377441406	-1236.835083007812	401.9386901855469	-304.35986328125	-1389.12109375	46.45306015014648	-248.7415618896484	-1335.654663085938	46.35723876953125	-203.0437927246094	-1280.836181640625	37.67351150512695	-312.2087707519531	-1115.280395507812	40.93587112426758	-213.6928863525391	nan	nan	nan	
131	1.3	-1079.609375	1056.94091796875	-278.7567138671875	-1076.32275390625	1063.738891601562	-157.9135131835938	-1077.5205078125	1148.898803710938	-209.4499359130859	-1335.240478515625	1310.14208984375	-197.3899230957031	-1077.554443359375	1274.932006835938	-222.6307983398438	-1164.2236328125	1529.543701171875	-223.4026641845703	-1319.869140625	1429.811767578125	-204.2373504638672	-1080.709228515625	1397.728515625	-301.8249206542969	-1131.998168945312	1497.111694335938	-111.3921356201172	-1217.131591796875	1491.699584960938	-48.43112945556641	-1179.316162109375	1378.568969726562	34.05123901367188	-1186.383422851562	1167.470458984375	68.11348724365234	-1114.0732421875	1150.824340820312	21.01697158813477	-1289.852905273438	940.647705078125	8.591289520263672	-1263.622192382812	919.340576171875	86.90234375	-1214.115966796875	1061.406005859375	81.54808044433594	-1309.9462890625	746.6034545898438	11.8875904083252	-1286.61962890625	832.8796997070312	80.42724609375	-1331.120239257812	841.5584716796875	29.29370498657227	-1236.011352539062	1475.377685546875	-382.302490234375	-1220.393920898438	1410.800048828125	-449.8474731445312	-1196.828369140625	1130.374877929688	-488.8847045898438	-1142.790161132812	1125.689086914062	-410.1448669433594	-1311.876098632812	912.1360473632812	-417.3580932617188	-1273.374633789062	899.1998901367188	-491.0632629394531	-1222.182250976562	1060.8955078125	-494.7335815429688	-1314.009521484375	718.6378784179688	-407.8401489257812	-1346.712768554688	788.7623901367188	-423.2589416503906	-1306.225830078125	790.5045776367188	-483.4588012695312	-1215.783813476562	1669.566528320312	-283.3215637207031	-1399.42431640625	1721.903930664062	-158.0950927734375	-1415.777587890625	1714.2998046875	-256.6214294433594	-1238.22265625	1686.095336914062	-145.85693359375	-1169.39794921875	1001.322082519531	-13.91316223144531	-1178.96923828125	1011.137573242188	-380.3346862792969	-1276.274291992188	1047.303833007812	-342.1095581054688	-1273.6103515625	1038.186401367188	-60.75257873535156	-1304.682373046875	524.52734375	-44.1254997253418	-1266.636352539062	663.9275512695312	-14.53948497772217	-1176.197143554688	51.90382385253906	-51.51548004150391	-1234.653198242188	302.7615966796875	-36.80330276489258	-1388.932495117188	58.99271392822266	-100.658203125	-1321.685546875	52.92139434814453	-144.5683898925781	-1302.9326171875	44.19875335693359	-32.76983642578125	-1115.267456054688	65.58766937255859	-102.8809967041016	-1224.73291015625	516.6822509765625	-326.4610595703125	-1173.645263671875	37.85584259033203	-277.7919921875	-1235.13818359375	402.0765380859375	-304.6444396972656	-1389.11328125	46.44595336914062	-248.7693481445312	-1335.654052734375	46.38830947875977	-203.0992279052734	-1280.843627929688	37.63644409179688	-312.2775573730469	-1115.33251953125	40.88905334472656	-213.7146759033203	nan	nan	nan	
